<?xml version="1.0" encoding="UTF-8" standalone="no"?>
<!DOCTYPE svg PUBLIC "-//W3C//DTD SVG 1.1//EN" "http://www.w3.org/Graphics/SVG/1.1/DTD/svg11.dtd">
<svg version="1.1" xmlns="http://www.w3.org/2000/svg" xmlns:xlink="http://www.w3.org/1999/xlink" preserveAspectRatio="xMidYMid meet" viewBox="194.08196721311455 145.72131147540904 296.4590163934424 284.16393442623075" width="292.46" height="280.16"><defs><path d="M377.87 181.74L231.64 181.74L231.64 391.86L450.98 391.86L450.98 269.29L487.54 269.29L487.54 426.89L195.08 426.89L195.08 146.72L377.87 146.72L377.87 181.74ZM370.71 307.98L370.72 307.99L328.35 348.58L249.87 273.4L292.24 232.81L328.34 267.4L426.9 172.99L469.26 213.57L370.71 307.98Z" id="bf96d7G6V"></path></defs><g><g><g><filter id="shadow9027544" x="186.08" y="137.72" width="311.46" height="299.16" filterUnits="userSpaceOnUse" primitiveUnits="userSpaceOnUse"><feFlood></feFlood><feComposite in2="SourceAlpha" operator="in"></feComposite><feGaussianBlur stdDeviation="1"></feGaussianBlur><feOffset dx="1" dy="1" result="afterOffset"></feOffset><feFlood flood-color="#000000" flood-opacity="0.5"></feFlood><feComposite in2="afterOffset" operator="in"></feComposite><feMorphology operator="dilate" radius="1"></feMorphology><feComposite in2="SourceAlpha" operator="out"></feComposite></filter><path d="M377.87 181.74L231.64 181.74L231.64 391.86L450.98 391.86L450.98 269.29L487.54 269.29L487.54 426.89L195.08 426.89L195.08 146.72L377.87 146.72L377.87 181.74ZM370.71 307.98L370.72 307.99L328.35 348.58L249.87 273.4L292.24 232.81L328.34 267.4L426.9 172.99L469.26 213.57L370.71 307.98Z" id="fq1G0eGAg" fill="white" fill-opacity="1" filter="url(#shadow9027544)"></path></g><use xlink:href="#bf96d7G6V" opacity="1" fill="#061103" fill-opacity="1"></use><g><use xlink:href="#bf96d7G6V" opacity="1" fill-opacity="0" stroke="#fff9fd" stroke-width="1" stroke-opacity="1"></use></g><g><filter id="shadow3533702" x="186.08" y="137.72" width="311.46" height="299.16" filterUnits="userSpaceOnUse" primitiveUnits="userSpaceOnUse"><feFlood></feFlood><feComposite in2="SourceAlpha" operator="out"></feComposite><feGaussianBlur stdDeviation="1"></feGaussianBlur><feOffset dx="1" dy="1" result="afterOffset"></feOffset><feFlood flood-color="#ffffff" flood-opacity="0.8"></feFlood><feComposite in2="afterOffset" operator="in"></feComposite><feMorphology operator="dilate" radius="1"></feMorphology><feComposite in2="SourceAlpha" operator="in"></feComposite></filter><path d="M377.87 181.74L231.64 181.74L231.64 391.86L450.98 391.86L450.98 269.29L487.54 269.29L487.54 426.89L195.08 426.89L195.08 146.72L377.87 146.72L377.87 181.74ZM370.71 307.98L370.72 307.99L328.35 348.58L249.87 273.4L292.24 232.81L328.34 267.4L426.9 172.99L469.26 213.57L370.71 307.98Z" id="g3liEf6FsZ" fill="white" fill-opacity="1" filter="url(#shadow3533702)"></path></g></g></g></svg>